<?xml version="1.0" standalone="no"?>
<!DOCTYPE svg PUBLIC "-//W3C//DTD SVG 20010904//EN"
 "http://www.w3.org/TR/2001/REC-SVG-20010904/DTD/svg10.dtd">
<svg version="1.0" xmlns="http://www.w3.org/2000/svg"
 width="512.000000pt" height="512.000000pt" viewBox="0 0 512.000000 512.000000"
 preserveAspectRatio="xMidYMid meet">
<metadata>
Created by potrace 1.11, written by Peter Selinger 2001-2013
</metadata>
<g transform="translate(0.000000,512.000000) scale(0.100000,-0.100000)"
fill="#000000" stroke="none">
<path d="M2445 3247 c-203 -397 -418 -818 -478 -934 l-109 -213 190 0 189 0
294 554 293 554 116 -226 c64 -125 203 -397 309 -604 l192 -378 -271 0 -270 0
0 -425 0 -425 1085 0 1085 0 0 85 0 85 -895 0 -895 0 0 165 0 165 359 2 359 3
-587 1152 c-322 633 -589 1154 -592 1157 -3 3 -171 -320 -374 -717z"/>
<path d="M1727 2820 c-323 -627 -587 -1143 -587 -1145 0 -3 160 -5 355 -5
l355 0 0 -175 0 -175 -895 0 -895 0 0 -80 0 -80 1085 0 1085 0 0 415 0 415
-265 0 c-146 0 -265 3 -265 7 0 3 182 366 405 805 l406 798 -91 173 c-50 94
-95 175 -99 179 -4 5 -271 -505 -594 -1132z"/>
<path d="M2764 2868 c-32 -57 -76 -138 -98 -181 l-41 -77 132 -258 131 -257
191 -3 191 -2 -220 440 c-121 242 -222 440 -224 440 -3 0 -31 -46 -62 -102z"/>
</g>
</svg>
